<?xml version="1.0" standalone="no"?>
<!DOCTYPE svg PUBLIC "-//W3C//DTD SVG 20010904//EN"
 "http://www.w3.org/TR/2001/REC-SVG-20010904/DTD/svg10.dtd">
<svg version="1.0" xmlns="http://www.w3.org/2000/svg"
 width="600.000000pt" height="1021.000000pt" viewBox="0 0 600.000000 1021.000000"
 preserveAspectRatio="xMidYMid meet">
<metadata>
Created by potrace 1.15, written by Peter Selinger 2001-2017
</metadata>
<g transform="translate(0.000000,1021.000000) scale(0.100000,-0.100000)"
fill="#000000" stroke="none">
<path d="M1208 9608 c-40 -34 -293 -281 -561 -547 l-488 -485 1736 -1736 1735
-1735 -1735 -1735 -1735 -1735 363 -363 c402 -405 744 -732 763 -732 21 0 930
896 2329 2295 1439 1438 2235 2248 2235 2270 0 25 -661 695 -2240 2275 -1451
1451 -2302 2290 -2321 2290 -4 0 -41 -28 -81 -62z"/>
</g>
</svg>
