<svg width="512" height="512" xmlns="http://www.w3.org/2000/svg">

 <g>
  <title>background</title>
  <rect fill="none" id="canvas_background" height="402" width="582" y="-1" x="-1"/>
 </g>
 <g>
  <title>Layer 1</title>
  <g id="svg_1">
   <path fill="#999999" id="svg_2" d="m495,466.2l-117.8,-117.8c29.2,-35.6 46.8,-81.2 46.8,-130.9c0,-114 -92.5,-206.5 -206.5,-206.5c-114.1,0 -206.5,92.5 -206.5,206.5s92.4,206.5 206.5,206.5c49.7,0 95.2,-17.5 130.8,-46.7l117.8,117.7c8,8 20.9,8 28.9,0c8,-7.9 8,-20.9 0,-28.8zm-277.5,-83.3c-91.3,0 -165.5,-74.2 -165.5,-165.4s74.2,-165.5 165.5,-165.5c91.2,0 165.5,74.3 165.5,165.5s-74.3,165.4 -165.5,165.4z"/>
  </g>
 </g>
</svg>