<?xml version="1.0" standalone="no"?>
<!DOCTYPE svg PUBLIC "-//W3C//DTD SVG 20010904//EN"
 "http://www.w3.org/TR/2001/REC-SVG-20010904/DTD/svg10.dtd">
<svg version="1.0" xmlns="http://www.w3.org/2000/svg"
 width="600.000000pt" height="600.000000pt" viewBox="0 0 600.000000 600.000000"
 preserveAspectRatio="xMidYMid meet">
<metadata>
Created by potrace 1.15, written by Peter Selinger 2001-2017
</metadata>
<g transform="translate(0.000000,600.000000) scale(0.100000,-0.100000)"
fill="#000000" stroke="none">
<path d="M0 5241 c0 -5 40 -116 89 -247 l89 -239 242 -5 243 -5 433 -1495
c239 -822 434 -1496 434 -1498 0 -1 748 -1 1662 0 l1663 3 574 1368 c315 752
572 1370 569 1372 -3 3 -950 4 -2105 3 l-2101 -3 62 -220 c35 -121 66 -232 70
-247 l6 -28 1655 -2 1654 -3 -366 -873 -366 -872 -1297 0 -1297 0 -429 1500
-429 1500 -527 0 c-301 0 -528 -4 -528 -9z"/>
<path d="M2503 1486 c-60 -19 -104 -49 -157 -106 -75 -80 -91 -125 -91 -255 0
-92 4 -118 22 -158 31 -66 115 -152 182 -184 51 -25 66 -28 166 -28 100 0 115
3 166 28 67 32 151 118 182 184 18 40 22 66 22 158 0 132 -16 176 -96 260 -77
81 -140 109 -259 112 -60 2 -110 -2 -137 -11z"/>
<path d="M3753 1486 c-60 -19 -104 -49 -157 -106 -75 -80 -91 -125 -91 -255 0
-92 4 -118 22 -158 31 -66 115 -152 182 -184 51 -25 66 -28 166 -28 100 0 115
3 166 28 67 32 151 118 182 184 18 40 22 66 22 158 0 132 -16 176 -96 260 -77
81 -140 109 -259 112 -60 2 -110 -2 -137 -11z"/>
</g>
</svg>
